<svg xmlns="http://www.w3.org/2000/svg" viewBox="0 0 128 128"><!-- From Noto Emoji v2.051 (github.com/googlefonts/noto-emoji) svg/emoji_u1f552.svg, minified and renamed by Simplify. Copyright 2013 Google, Inc. Apache License 2.0. See LICENSE.txt --><circle cx="64" cy="64" r="60" fill="#98c0d0"/><circle cx="64" cy="64" r="48.14" fill="#fcebcd"/><path d="M50.3 15.06c-6.42 1.86-15.41 4.71-25.03 16.2C15.77 42.63 13.81 55.84 13.2 64.95c0 0-5.49 6.87-5.75 5.59-2.07-9.95 2.11-32.19 13.04-43.95C33.21 12.91 49.75 8.06 55.73 7.15 56.76 6.99 52.25 14.5 50.3 15.06z" fill="#c2e3f0"/><circle cx="64" cy="64" r="45.59" fill="#fff"/><line x1="64" y1="35" x2="64" y2="64" fill="none" stroke="#563428" stroke-width="4" stroke-linecap="round" stroke-miterlimit="10"/><circle cx="64" cy="64" r="5.06" fill="#563428"/><line x1="85.07" y1="63.93" x2="63.83" y2="64.07" fill="none" stroke="#563428" stroke-width="6" stroke-linecap="round" stroke-miterlimit="10"/><line x1="64" y1="100" x2="64" y2="105" fill="none" stroke="#6596a3" stroke-width="5" stroke-miterlimit="10"/><line x1="64" y1="23" x2="64" y2="28" fill="none" stroke="#6596a3" stroke-width="5" stroke-miterlimit="10"/><line x1="64" y1="100" x2="64" y2="105" fill="none" stroke="#6596a3" stroke-width="5" stroke-miterlimit="10"/><line x1="64" y1="23" x2="64" y2="28" fill="none" stroke="#6596a3" stroke-width="5" stroke-miterlimit="10"/><line x1="28" y1="64" x2="23" y2="64" fill="none" stroke="#6596a3" stroke-width="5" stroke-miterlimit="10"/><line x1="105" y1="64" x2="100" y2="64" fill="none" stroke="#6596a3" stroke-width="5" stroke-miterlimit="10"/><line x1="28" y1="64" x2="23" y2="64" fill="none" stroke="#6596a3" stroke-width="5" stroke-miterlimit="10"/><line x1="105" y1="64" x2="100" y2="64" fill="none" stroke="#6596a3" stroke-width="5" stroke-miterlimit="10"/><line x1="46" y1="95.18" x2="43.5" y2="99.51" fill="none" stroke="#b0bec5" stroke-width="3" stroke-miterlimit="10"/><line x1="84.5" y1="28.49" x2="82" y2="32.82" fill="none" stroke="#b0bec5" stroke-width="3" stroke-miterlimit="10"/><line x1="46" y1="95.18" x2="43.5" y2="99.51" fill="none" stroke="#b0bec5" stroke-width="3" stroke-miterlimit="10"/><line x1="84.5" y1="28.49" x2="82" y2="32.82" fill="none" stroke="#b0bec5" stroke-width="3" stroke-miterlimit="10"/><line x1="82" y1="95.18" x2="84.5" y2="99.51" fill="none" stroke="#b0bec5" stroke-width="3" stroke-miterlimit="10"/><line x1="43.5" y1="28.49" x2="46" y2="32.82" fill="none" stroke="#b0bec5" stroke-width="3" stroke-miterlimit="10"/><line x1="82" y1="95.18" x2="84.5" y2="99.51" fill="none" stroke="#b0bec5" stroke-width="3" stroke-miterlimit="10"/><line x1="43.5" y1="28.49" x2="46" y2="32.82" fill="none" stroke="#b0bec5" stroke-width="3" stroke-miterlimit="10"/><line x1="95.18" y1="82" x2="99.51" y2="84.5" fill="none" stroke="#b0bec5" stroke-width="3" stroke-miterlimit="10"/><line x1="28.49" y1="43.5" x2="32.82" y2="46" fill="none" stroke="#b0bec5" stroke-width="3" stroke-miterlimit="10"/><line x1="95.18" y1="82" x2="99.51" y2="84.5" fill="none" stroke="#b0bec5" stroke-width="3" stroke-miterlimit="10"/><line x1="28.49" y1="43.5" x2="32.82" y2="46" fill="none" stroke="#b0bec5" stroke-width="3" stroke-miterlimit="10"/><line x1="32.82" y1="82" x2="28.49" y2="84.5" fill="none" stroke="#b0bec5" stroke-width="3" stroke-miterlimit="10"/><line x1="99.51" y1="43.5" x2="95.18" y2="46" fill="none" stroke="#b0bec5" stroke-width="3" stroke-miterlimit="10"/><line x1="32.82" y1="82" x2="28.49" y2="84.5" fill="none" stroke="#b0bec5" stroke-width="3" stroke-miterlimit="10"/><line x1="99.51" y1="43.5" x2="95.18" y2="46" fill="none" stroke="#b0bec5" stroke-width="3" stroke-miterlimit="10"/></svg>