<svg xmlns="http://www.w3.org/2000/svg" viewBox="0 0 128 128"><rect x="16" y="30" width="96" height="58" fill="#ffe0b2"/><rect x="16" y="4" width="96" height="20" rx="4" fill="#ffca28"/><path d="M53 12h22c0 6-5 10-11 10s-11-4-11-10z" fill="#e53935"/><path d="M59 10l6-6M64 10l7-6" fill="none" stroke="#5d4037" stroke-width="2" stroke-linecap="round" stroke-linejoin="round"/><path d="M31 58c-3-4 3-6 0-10M43 58c-3-4 3-6 0-10" fill="none" stroke="#b0bec5" stroke-width="2.5" stroke-linecap="round" stroke-linejoin="round"/><rect x="16" y="66" width="6" height="5" rx="2" fill="#757575"/><rect x="52" y="66" width="6" height="5" rx="2" fill="#757575"/><rect x="20" y="62" width="34" height="22" rx="4" fill="#9e9e9e"/><rect x="20" y="76" width="34" height="8" rx="3" fill="#757575"/><rect x="18" y="59" width="38" height="6" rx="3" fill="#bdbdbd"/><rect x="64" y="52" width="42" height="28" rx="3" fill="#fafafa"/><circle cx="73" cy="62" r="5" fill="#ef9a9a"/><circle cx="85" cy="62" r="5" fill="#a5d6a7"/><circle cx="97" cy="62" r="5" fill="#90caf9"/><rect x="68" y="71" width="34" height="3" rx="1.5" fill="#bdbdbd"/><path d="M10 22h18v14a9 9 0 0 1-18 0z" fill="#e53935"/><path d="M28 22h18v14a9 9 0 0 1-18 0z" fill="#fafafa"/><path d="M46 22h18v14a9 9 0 0 1-18 0z" fill="#e53935"/><path d="M64 22h18v14a9 9 0 0 1-18 0z" fill="#fafafa"/><path d="M82 22h18v14a9 9 0 0 1-18 0z" fill="#e53935"/><path d="M100 22h18v14a9 9 0 0 1-18 0z" fill="#fafafa"/><rect x="10" y="84" width="108" height="36" rx="4" fill="#b0bec5"/><rect x="10" y="84" width="108" height="7" rx="3" fill="#eee"/><rect x="18" y="98" width="92" height="3" rx="1.5" fill="#90a4ae"/><rect x="18" y="108" width="92" height="3" rx="1.5" fill="#90a4ae"/></svg>