<svg xmlns="http://www.w3.org/2000/svg" viewBox="0 0 128 128"><rect x="26" y="6" width="76" height="118" rx="13" fill="#424242"/><rect x="26" y="6" width="72" height="114" rx="12" fill="#616161"/><rect x="34" y="15" width="56" height="52" rx="6" fill="#e8f5e9"/><path d="M44 42l12 12 24-26" fill="none" stroke="#43a047" stroke-width="10" stroke-linecap="round" stroke-linejoin="round"/><rect x="38" y="76" width="13" height="9" rx="3" fill="#bdbdbd"/><rect x="55" y="76" width="13" height="9" rx="3" fill="#bdbdbd"/><rect x="72" y="76" width="13" height="9" rx="3" fill="#bdbdbd"/><rect x="38" y="90" width="13" height="9" rx="3" fill="#bdbdbd"/><rect x="55" y="90" width="13" height="9" rx="3" fill="#bdbdbd"/><rect x="72" y="90" width="13" height="9" rx="3" fill="#bdbdbd"/><rect x="38" y="104" width="13" height="9" rx="3" fill="#bdbdbd"/><rect x="55" y="104" width="13" height="9" rx="3" fill="#bdbdbd"/><rect x="72" y="104" width="13" height="9" rx="3" fill="#43a047"/></svg>