<svg xmlns="http://www.w3.org/2000/svg" viewBox="0 0 128 128"><!-- From Noto Emoji v2.051 (github.com/googlefonts/noto-emoji) svg/emoji_u1f36a.svg, minified and renamed by Simplify. Copyright 2013 Google, Inc. Apache License 2.0. See LICENSE.txt --><path d="M15.99 35.76l-4.26.98c0 0-5.91 9.12-7.2 18.82-.81 6.09-.84 14.04-.28 18 .57 3.96 2.61 12.39 5.82 18.33 3.09 5.72 6.1 7.97 9.39 9.96 1.41.85 2.67 3.76 4.87 5.17 2.06 1.32 4.78 1.58 4.78 1.58s7.52 11.81 23.79 13.86c19.09 2.4 28.43-6.22 28.43-6.22s7.64-.02 14.85-3.11c8.09-3.47 12.41-10.69 12.41-10.69s10.13-8.72 13.34-19.16c2.58-8.38 2.65-24.31.67-31.81-1.98-7.5-5.81-13.85-8.85-17.92-2.42-3.24-29.44-17.6-32.7-18.88-3.25-1.27-33.52-3.25-34.65-2.4C45.27 13.13 15.99 35.76 15.99 35.76z" fill="#ac5811"/><radialGradient id="a" cx="64.1644" cy="57.5964" r="53.202" gradientUnits="userSpaceOnUse"><stop offset=".507" stop-color="#f29f58"/><stop offset=".7151" stop-color="#f09d56"/><stop offset=".8262" stop-color="#eb9550"/><stop offset=".9141" stop-color="#e18745"/><stop offset=".9898" stop-color="#d47436"/><stop offset="1" stop-color="#d27133"/></radialGradient><path d="M26.53 19.75c-7.05 5.74-10.7 8.74-14.36 15.92S9.69 52.38 10.35 55.9c.65 3.52 1.83 10.31 2.48 13.7C13.48 73 15.21 81.06 20 86.05c6.71 6.99 12.79 9.4 12.79 9.4s4.93 7.64 16.84 12.01c15.66 5.74 22.71-2.61 28.71-4.83 6-2.22 13.18-2.35 19.32-6.66 6.13-4.31 12.92-9.53 17.36-20.49s3.52-15.79 3.65-18.53c.13-2.74-.26-15.92-5.35-24.01s-11.21-12.95-13.57-14.49c-5.22-3.39-23.86-11.5-28.55-12.41-4.7-.91-21.46.51-28.11 3.25S26.53 19.75 26.53 19.75z" fill="url(#a)"/><path d="M56.28 71.46c-1.11-.35-2.28-2-2.56-5.53-.39-5.03 3.32-6.42 3.32-6.42s4.42-1.17 7.53-2.28c2.89-1.03 4.97-2.35 4.97-2.35s.28-5.39 2.07-6.98c1.8-1.59 4.97-1.45 8.5-1.04 3.52.41 9.19 2.76 8.36 4.9-.83 2.14-1.8 4.28-5.18 6.22-3.38 1.93-5.8 3.73-7.53 5.25-1.73 1.53-4.9 3.45-10.15 5.39S57.88 71.96 56.28 71.46z" fill="#ffc86e"/><path d="M26.55 26.47c-3.32-.68-8.01 6.51-8.88 8.89-.88 2.38-1.78 8.18-1.88 10.83-.13 3.29-.19 6.38 1.19 8.89 1.06 1.94 3.63 3.03 5.94 1.03 2.31-2 6.32-7.48 7.38-8.25s4.16-1.79 2.94-6.83c-.5-2.06-5.57-6.32-5.82-6.9C27.18 33.56 28.43 26.86 26.55 26.47z" fill="#ffc86e"/><path d="M50.02 17.44c.13 1.93 1.71 5.02 3.42 6.69 2.56 2.49 14.3 10.91 17.34 10.43s6.35-5.94 7.32-7.46 2.9-3.66 3.66-4.63c.76-.97 2.76-3.18 1.11-5.39-1.66-2.21-5.8-3.66-8.56-3.87-2.76-.21-7.05-2-10.71-1.86C59.94 11.49 49.68 12.46 50.02 17.44z" fill="#ffc86e"/><path d="M98.34 43.19c.23 2.1 3.18 2.56 5.53 4.08s3.94 3.11 5.32 2.69c1.38-.41 3.26-2.62 2.83-6.49-.55-4.97-3.66-11.33-8.01-11.12-2.63.13-2.27 4.7-2.27 4.7S98.2 41.95 98.34 43.19z" fill="#ffc86e"/><path d="M41.47 30.23c0 0-9.43-.06-9.26.88.18.94 1 4.04 3.46 4.16 2.46.12 5.63.35 7.15-.12 1.52-.47 5.74-3.87 5.74-5.39s-1.7-3.75-1.7-3.75L41.47 30.23z" fill="#cf701e"/><path d="M54.94 47.52c0 0-.11.07-.27.2-.47.39-1.37 1.3-1.02 2.32.47 1.35 3.22 3.87 5.92 3.87s4.16-2.52 4.63-4.16c.47-1.64.23-2.64.23-2.64L54.94 47.52z" fill="#cf701e"/><path d="M33.91 55.2c0 0-1.64.59-1.58 1.64.06 1.05.47 2.99 2.58 5.04 2.13 2.07 5.22 2.64 8.03 1.88 2.81-.76 4.86-2.87 4.63-5.68-.23-2.81-2.93-4.98-2.93-4.98L33.91 55.2z" fill="#cf701e"/><path d="M21.78 70.73c0 0-1.76.41-1.58 1.58s2.17 4.86 5.33 4.45 8.15-4.04 8.15-5.45-2.52-3.28-2.52-3.28L21.78 70.73z" fill="#cf701e"/><path d="M43.34 85.38c0 0-.65 3.78 4.45 5.16 8.5 2.29 9.38-2.87 9.38-2.87L43.34 85.38z" fill="#cf701e"/><path d="M76.73 87.13c0 0-2.28 2.28.31 4.07 2.59 1.79 5.54 2.4 8.32 2.09s4.68-2.53 4.68-2.53L76.73 87.13z" fill="#cf701e"/><path d="M98.01 61.81c0 0-4.3 2.17-.97 5.92 2.53 2.86 8.32 2.28 10.69.67 1.55-1.05 2.01-2.91 1.43-3.85C108.57 63.61 98.01 61.81 98.01 61.81z" fill="#cf701e"/><path d="M81.37 36.97c0 0-.23 4.91 6.39 4.75 9.26-.23 8.09-5.98 8.09-5.98L81.37 36.97z" fill="#cf701e"/><path d="M85.65 30.82c0 0-4.34 2.7-4.81 3.81-.47 1.11-1.47 4.63 3.57 4.4 5.04-.23 10.08-.41 11.78-2.46 1.7-2.05 1.29-3.93.59-5.45s-4.64-7.27-7.77-7.2C86.96 23.96 85.65 30.82 85.65 30.82z" fill="#593329"/><path d="M88.99 23.9c0 0-2.75-.35-5.16 3.93-2.4 4.28-3.02 6.83-3.02 6.83s4.89.02 7.82-.33c2.93-.35 4.92-2.17 4.92-2.17S91.16 24.43 88.99 23.9z" fill="#925849"/><path d="M55.71 43.89c0 0-2.4-.16-2.58.77-.18.94.35 3.33 1.17 4.38s3.28 3.4 5.74 2.93c2.46-.47 3.92-2.88 4.33-3.71.37-.78.77-1.62.07-2.67C63.73 44.53 55.71 43.89 55.71 43.89z" fill="#593329"/><path d="M59.28 40.14c-2.04-.22-6.96 3.69-6.08 5.03.98 1.47 1.15.54 3.85 1.89 2.23 1.11 3.2 2.14 4.6 1.96s3.07-2.49 2.78-3.43C64.14 44.65 62.04 40.43 59.28 40.14z" fill="#925849"/><path d="M36.19 24.31l-4.8 3.32c0 0-.18 2.25.82 3.48 1 1.23 1.29 1.99 5.98 1.99s9.08-.64 9.9-3.98c.82-3.34-.62-5.48-1.5-6.71C45.71 21.18 36.19 24.31 36.19 24.31z" fill="#593329"/><path d="M36.25 19.1c-1.08.46-3.63 3.93-4.22 5.45-.59 1.52-.72 3.14-.64 3.16.97.24 6.68.77 9.2.36 2.52-.41 4.57-1.52 5.39-2.99.65-1.17.6-2.72.6-2.72s-1.71-3.08-4.06-4.02C40.18 17.4 36.66 18.92 36.25 19.1z" fill="#925949"/><path d="M32.23 55.42c0 0-.4.61.36 1.78.76 1.17 2.25 2.57 4.48 3.22 2.23.64 3.81 1.52 5.27 1.35 1.47-.18 4.34-1.35 4.45-5.39.12-4.04-.7-5.92-2.46-7.68s-3.03-1.46-3.03-1.46L32.23 55.42z" fill="#593329"/><path d="M32.74 51.68c-.62 1.04-1.08 4.42-.32 5.18.76.76 5.33.81 6.53.68 1.21-.13 5.16-1.99 5.22-3.4.06-1.41-.7-3.28-.7-3.98s.88-2.34-1.52-2.93S34.02 49.51 32.74 51.68z" fill="#925849"/><path d="M24.82 66.86c0 0-3.77.93-4.01 2.22-.23 1.29.31 2.59 1.6 3.82 1.29 1.23 2.23 2.52 3.22 2.4 1-.12 3.63-2.46 4.45-3.22.82-.76 1.99-2.11 1.88-3.22s-.59-2.23-1.64-3.11C29.28 64.87 24.82 66.86 24.82 66.86z" fill="#593329"/><path d="M25.76 63.52c-1.76.04-3.11 2.17-3.69 2.93-.59.76-1.58 2.58-1.17 2.87.41.29 2.11.47 2.93 1 .82.53 2.05 1.35 2.99.59.94-.76 1.76-2.87 2.23-3.57.47-.7 1.29-1.58 1.29-1.58S28.57 63.46 25.76 63.52z" fill="#925849"/><path d="M47.27 77.64c-.35.41-5.33 4.45-5.33 4.45s.18 3.52 1.29 4.34c1.11.82 4.57 1.99 6.8 2.46 2.23.47 6.21 1 7.21.59 1-.41 2.05-2.58 2.11-5.39.06-2.81-.94-4.91-2.05-6.2-1.11-1.29-2-1.77-2-1.77L47.27 77.64z" fill="#593329"/><path d="M53.89 82.91c.65-.73 1.41-6.8 1.41-6.8s-4.51-3.46-6.39-3.69c-1.88-.23-4.1-.06-4.75.64-.64.7-3.16 3.22-2.93 4.86s.7 4.16.7 4.16S52.54 84.44 53.89 82.91z" fill="#925849"/><path d="M75.75 85.8c0 0-.57 3.8 3.61 4.52 4.18.71 7.65 1.66 9.46 1.28 1.81-.38 3.61-2.8 3.8-4.56.19-1.76.29-4.3 0-4.99-.76-1.83-4.28-6.84-5.99-7.37-.96-.29-1.87-.13-1.87-.13L75.75 85.8z" fill="#593329"/><path d="M78.46 79.14c-1.87 2.07-2.83 5.06-2.73 6.64.1 1.49 7.19.84 8.03.33.84-.51 2.67-2.79 2.73-3.55s-.52-3.14-.62-4.61c-.1-1.47-.14-3.47-.95-3.42C84.11 74.58 81.12 76.2 78.46 79.14z" fill="#925849"/><path d="M102.44 53.34c0 0 1.65.24 3.68 1.46 2.37 1.42 4.85 5.04 4.66 7.99s-2.76 4.28-5.89 4.33S98.7 67 98.13 65.38C97.56 63.76 102.44 53.34 102.44 53.34z" fill="#593329"/><path d="M99.94 54.33c-.49.68-1.76 2.76-2.19 5.42s-.14 5.7.81 6.23c.95.52 6.18-3.99 6.46-4.47.29-.48-1.67-7.75-2.29-8.08S100.56 53.48 99.94 54.33z" fill="#925849"/></svg>