<svg xmlns="http://www.w3.org/2000/svg" viewBox="0 0 128 128"><!-- From Noto Emoji v2.051 (github.com/googlefonts/noto-emoji) svg/emoji_u1f6b6.svg, minified and renamed by Simplify. Copyright 2013 Google, Inc. Apache License 2.0. See LICENSE.txt --><path d="M67.17 13.34c-2.51-4.06-8.2-7.22-12.91-6.44-5.28.87-8.11 4.67-8.86 9.49-.27 1.75-.22 3.49.08 4.72.04.15.33 1.22.35 1.56.2 1.3-2.32 2.59-2.61 4.02-.22 1.08 2.03 1.77 2.21 1.96.88.97-.51 5.58 5.66 6.04 2.37.18 1.91.03 2.61.3 1.09.42.99 3.32.99 3.32s.61 4.78 4.69 3.51c4.66-1.44 4.84-4.74 4.84-4.74s-1.73-4.6 1.05-9.38C67.48 23.88 68.79 15.95 67.17 13.34z" fill="#ffca28"/><path d="M46.05 31.23c.86.05 1.7-.15 2.43-.69.79-.59.25-1.24-.66-.86-.55.23-1.32.35-2.02.22L46.05 31.23z" fill="#795548"/><ellipse transform="matrix(.9995-.0315.0315.9995-.7121 1.5755)" cx="49.65" cy="23.39" rx="1.13" ry="1.74" fill="#404040"/><path d="M48.77 20.82c-1.12.26-1.34-.48-.94-1.04.29-.42.98-.74 2.25-.42 1.2.3 1.66 1.03 1.97 1.47s.24.86-.04.89C51.63 21.74 50.15 20.5 48.77 20.82z" fill="#6d4c41"/><path d="M85.26 108.68L71.19 92.63c-.88-1-1.4-2.26-1.48-3.59l-1.38-22.46-15.5 1.71 4.88 23.17c.79 3.75 2.9 7.09 5.94 9.42l16.49 12.6L85.26 108.68z" fill="#616161"/><path d="M68.15 62.88l-17.58 1.61-4.53 20.39c-.83 3.76-1.12 7.63-.85 11.47l1.63 23.24h6.67l2.95-25.03c0 0 5.01-13.32 5.17-13.4 4.07-1.93 7.59-4.92 7.41-9.83C68.93 68.51 68.47 65.67 68.15 62.88z" fill="#7c7c7c"/><linearGradient id="a" gradientUnits="userSpaceOnUse" x1="51.8724" y1="77.6397" x2="69.1224" y2="65.6397" gradientTransform="matrix(1 0 0-1 0 128)"><stop offset="0" stop-color="#f78c1f"/><stop offset=".482" stop-color="#f47f12"/><stop offset="1" stop-color="#ef6c00"/></linearGradient><path d="M64.89 73.51H52.99c-2.27 0-4.12-2.18-4.12-4.86l2.15-22.5c.44-4.11 2.53-8.09 4.63-9.59 1.97-1.41 4.82-1.64 4.82-1.64 1.53-.12 3.8.25 5.25 2.37.87 1.27 1.52 3.75 1.66 5.88L69 68.65C69 71.34 67.16 73.51 64.89 73.51z" fill="url(#a)"/><linearGradient id="b" gradientUnits="userSpaceOnUse" x1="59.1987" y1="57.6172" x2="56.0045" y2="76.3419" gradientTransform="matrix(1 0 0-1 0 128)"><stop offset=".4606" stop-color="#ffca28"/><stop offset=".9996" stop-color="#ffb300"/></linearGradient><path d="M66.8 60.29l-2.25-13.83-6.97 1.13 2.15 13.19-3.57 9.84c-.23.45-3.46 1.91-3.66 2.01-.62.3-1.05.89-1.37 2.06-.19.72-.67 2.78.34 3.14-.34.95-.12 2.14.14 2.42.6.65 1.33.36 1.33.36s.1.83.76 1.06c.82.29 1.39-.16 1.39-.16.29.22.64.34 1.01.34.44 0 .83-.17 1.13-.39.19.08.71.39 1.37-.08.42-.3 1.74-2.03 2.15-3.14.28-.76.24-4.58.59-5.25.35-.67 5.14-10.2 5.14-10.2l-.01 0C66.9 62 67 61.11 66.8 60.29z" fill="url(#b)"/><linearGradient id="c" gradientUnits="userSpaceOnUse" x1="53.3336" y1="44.8394" x2="55.5812" y2="50.6919" gradientTransform="matrix(1 0 0-1 0 128)"><stop offset=".4561" stop-color="#ffca28"/><stop offset="1" stop-color="#ffb300"/></linearGradient><path d="M58.88 78.7c-.23-.6-.38-.64-.8-.53-.57.15-1.19.13-1.54-.57-.08-.17-.2-.23-.38-.17-.61.2-1.37.21-1.63-.71-.1-.34-.24-.38-.61-.38-.12 0-.47.15-.83-.23-.4-.43.14-1.29-.37-1.37-.15-.02-.87.06-1.09-.71-.14-.5.44-1.1.45-1.11-.4.35-.71.9-.94 1.78-.19.72-.67 2.78.34 3.14-.34.95-.12 2.14.14 2.42.6.65 1.33.36 1.33.36s.1.83.76 1.06c.82.29 1.39-.16 1.39-.16.29.22.64.34 1.01.34.44 0 .83-.17 1.13-.39.19.08.71.39 1.37-.08.35-.25 1.34-1.52 1.89-2.58C60.01 79.2 59.05 79.15 58.88 78.7z" fill="url(#c)"/><path d="M54.6 123.98c.63 0 1.15-.51 1.15-1.15l0-2.8c0-1.9-1.93-4.07-1.93-4.07h-6.98l-6.28 2.07c-1.52.6-2.53 2.06-2.54 3.69l-.01 1.26c0 .55.45 1 1 1L54.6 123.98z" fill="#4568ad"/><path d="M89.65 111.84c.45-.45.45-1.17 0-1.62l-1.98-1.98c-1.35-1.35-4.24-1.52-4.24-1.52l-4.93 4.93-2.97 5.91c-.65 1.5-.33 3.24.82 4.41l.89.9c.39.39 1.03.39 1.42 0L89.65 111.84z" fill="#325599"/><path d="M58.37 79.39c.07.49-.06.86-.24 1.22-.2.34-.44.65-.89.86-.07-.49.06-.86.24-1.22C57.67 79.91 57.92 79.6 58.37 79.39z" fill="#eda600"/><path d="M56.35 78.48c.07.63-.07 1.19-.27 1.72-.22.52-.48 1.03-.97 1.44-.07-.64.07-1.19.27-1.72C55.6 79.41 55.87 78.9 56.35 78.48z" fill="#eda600"/><path d="M53.95 77.48c.12.62.02 1.18-.13 1.72-.17.53-.4 1.05-.85 1.5-.12-.62-.02-1.18.13-1.72C53.28 78.45 53.51 77.93 53.95 77.48z" fill="#eda600"/><path d="M53.8 73.88c-.31.27-.61.55-.86.85-.27.3-.4.57-.49.96-.23.74-.46 1.51-1 2.22-.16-.87 0-1.69.33-2.47.17-.38.5-.82.86-1.04C53.01 74.15 53.4 73.98 53.8 73.88z" fill="#eda600"/><path d="M56.4 53l10.9-1.98-1.76-9.69c-.55-3.01-3.43-5.01-6.44-4.46l0 0c-3.01.55-5.01 3.43-4.46 6.44L56.4 53z" fill="#ed6d23"/><path d="M70.66 13.53c-1.32-3.31-4-4.31-4.88-4.55-.41-1.2-2.49-5.75-10-4.51-1.83.3-3.17 1.17-4.35 1.94C50.93 6.74 50.45 7.06 50 7.27c-.37.17-1.01.33-1.54.16-1.21-.4-.83-2.24-.83-2.24s-4.44.88-2.53 5.17c-1.49.66-2.18 2.24-2.44 3.73-.36 2.03.63 3.96 2.58 4.83 0 0-.39-3.26 4.32-3.07 1.46.06 2.99.29 4.34-.26.52-.21 1-.54 1.5-.78.12 0 .18 0 .18 0 1.78.95-.56 5.16 1.42 7.62.39.49.72.31.72.31l.79-1.17c.6-.8 1.15-1.5 1.9-1.33 2.22.49 1.82 4.45-.81 5.32-.26.09.35 4.5 5.8 4.5 2.82 0 3.81-2.34 3.81-2.34s-1.2.3-1.46-.72c-.14-.53.35-1.25 1.23-2.03 2.54-2.26 1.62-4.86 1.25-5.67C70.63 18.54 71.69 16.12 70.66 13.53z" fill="#543930"/><radialGradient id="d" cx="63.4351" cy="103.5031" r="7.1218" gradientTransform="matrix(.9381.3463.4988-1.351-47.7029 142.3603)" gradientUnits="userSpaceOnUse"><stop offset=".45" stop-color="#6d4c41" stop-opacity="0"/><stop offset="1" stop-color="#6d4c41"/></radialGradient><path d="M70.24 19.29c.05-.09-.79 2.01-4.39 1.66-1.48 0-3.54 3.57-1.38 5.93 1.92 2.08 4.75.83 4.75.83s-.39.11-.96-.08c-.37-.13-.5-.61-.5-.64-.14-.53.35-1.25 1.23-2.03C71.53 22.69 70.61 20.1 70.24 19.29z" fill="url(#d)"/><radialGradient id="e" cx="64.2769" cy="110.6849" r="7.2189" gradientTransform="matrix(.9909-.1344-.1696-1.2504 19.3552 164.3546)" gradientUnits="userSpaceOnUse"><stop offset=".45" stop-color="#6d4c41" stop-opacity="0"/><stop offset="1" stop-color="#6d4c41"/></radialGradient><path d="M70.66 13.53c-.69-1.74-1.96-3.21-3.64-4.06-.24-.12-.84-.41-1.25-.49.2.77.18 1.6-.15 2.45-.01.03-.39 1.3-1.48 2.31.79 1.1 1.19 2.43 1.57 3.74.33 1.14.65 2.4.14 3.47.69-.04 1.79.15 3-.39 1.16-.52 1.77-1.86 2.05-3.06C71.21 16.19 71.16 14.8 70.66 13.53z" fill="url(#e)"/><radialGradient id="f" cx="56.224" cy="113.1761" r="14.8578" gradientTransform="matrix(.9882-.1534-.1153-.7428 13.7146 107.5168)" gradientUnits="userSpaceOnUse"><stop offset=".45" stop-color="#6d4c41" stop-opacity="0"/><stop offset="1" stop-color="#6d4c41"/></radialGradient><path d="M65.61 11.44c.87-2.23-.36-4.29-2.21-5.66-2.18-1.61-5.04-1.73-7.62-1.31-1.83.3-3.17 1.17-4.35 1.94-.51.33-.99.64-1.44.86-.37.17-1.01.33-1.54.16-1.21-.4-.83-2.24-.83-2.24s-4.44.88-2.53 5.17c-1.49.66-2.18 2.24-2.44 3.73-.36 2.03.63 3.96 2.58 4.83 0 0-.39-3.26 4.32-3.07 1.46.06 2.99.29 4.34-.26 1.2-.48 1.6-1.13 2.95-1.06 1.45.08 3.38.63 4.87.4C64.72 14.47 65.6 11.48 65.61 11.44z" fill="url(#f)"/><radialGradient id="g" cx="65.0763" cy="102.6346" r="7.9986" gradientTransform="matrix(.9692.2463.1583-.6231-14.2425 73.2913)" gradientUnits="userSpaceOnUse"><stop offset=".45" stop-color="#6d4c41" stop-opacity="0"/><stop offset="1" stop-color="#6d4c41"/></radialGradient><path d="M64.47 26.88c-.97-1.03-1.23-2.73-2.75-3.63-.28.99-.99 1.92-2.12 2.3-.26.09.35 4.5 5.8 4.5 2.82 0 3.81-2.34 3.81-2.34S66.42 28.95 64.47 26.88z" fill="url(#g)"/></svg>